<?xml version="1.0" standalone="no"?><!DOCTYPE svg PUBLIC "-//W3C//DTD SVG 1.1//EN" "http://www.w3.org/Graphics/SVG/1.1/DTD/svg11.dtd"><svg t="1736927688838" class="icon" viewBox="0 0 1024 1024" version="1.1" xmlns="http://www.w3.org/2000/svg" p-id="5894" xmlns:xlink="http://www.w3.org/1999/xlink" width="200" height="200"><path d="M213.333333 938.666667m42.666667 0l512 0q42.666667 0 42.666667 42.666666l0 0q0 42.666667-42.666667 42.666667l-512 0q-42.666667 0-42.666667-42.666667l0 0q0-42.666667 42.666667-42.666666Z" fill="#1296db" p-id="5895"></path><path d="M938.666667 0H85.333333a85.333333 85.333333 0 0 0-85.333333 85.333333v725.333334a85.333333 85.333333 0 0 0 85.333333 85.333333h853.333334a85.333333 85.333333 0 0 0 85.333333-85.333333V85.333333a85.333333 85.333333 0 0 0-85.333333-85.333333zM320 682.666667A234.666667 234.666667 0 0 1 298.666667 213.333333v213.333334a42.666667 42.666667 0 0 0 42.666666 42.666666h213.333334a234.24 234.24 0 0 1-234.666667 213.333334zM384 426.666667a42.666667 42.666667 0 0 1-42.666667-42.666667V213.333333a233.386667 233.386667 0 0 1 213.333334 213.333334z m512 256h-213.333333a42.666667 42.666667 0 0 1 0-85.333334h213.333333a42.666667 42.666667 0 0 1 0 85.333334z m42.666667-170.666667a42.666667 42.666667 0 0 1-42.666667 42.666667h-213.333333a42.666667 42.666667 0 0 1-42.666667-42.666667V345.6a11.093333 11.093333 0 0 1 2.986667-7.253333l74.666666-74.666667a10.666667 10.666667 0 0 1 15.36 0l69.973334 69.973333a10.666667 10.666667 0 0 0 15.36 0l101.973333-101.973333a10.666667 10.666667 0 0 1 18.346667 7.253333z" fill="#1296db" p-id="5896"></path></svg>